<?xml version="1.0" standalone="no"?><!DOCTYPE svg PUBLIC "-//W3C//DTD SVG 1.1//EN" "http://www.w3.org/Graphics/SVG/1.1/DTD/svg11.dtd"><svg t="1751509096640" class="icon" viewBox="0 0 1024 1024" version="1.1" xmlns="http://www.w3.org/2000/svg" p-id="7627" xmlns:xlink="http://www.w3.org/1999/xlink" width="200" height="200"><path d="M512 512m-512 0a512 512 0 1 0 1024 0 512 512 0 1 0-1024 0Z" fill="#37474F" p-id="7628"></path><path d="M512 512m-485.052632 0a485.052632 485.052632 0 1 0 970.105264 0 485.052632 485.052632 0 1 0-970.105264 0Z" fill="#263238" p-id="7629"></path><path d="M970.105263 668.564211L512 512l156.564211 458.105263A485.052632 485.052632 0 0 0 970.105263 668.564211zM53.894737 355.435789L512 512 355.435789 53.894737A485.052632 485.052632 0 0 0 53.894737 355.435789z" fill="#37474F" p-id="7630"></path><path d="M512 323.368421a188.631579 188.631579 0 1 0 188.631579 188.631579 188.631579 188.631579 0 0 0-188.631579-188.631579z" fill="#F44336" p-id="7631"></path><path d="M512 512m-26.947368 0a26.947368 26.947368 0 1 0 53.894736 0 26.947368 26.947368 0 1 0-53.894736 0Z" p-id="7632"></path></svg>